<svg xmlns="http://www.w3.org/2000/svg" version="1.1" xmlns:xlink="http://www.w3.org/1999/xlink" xmlns:svgjs="http://svgjs.com/svgjs" width="1000" height="1000"><rect width="1000" height="1000" rx="150" ry="150" fill="#393a3a"></rect><g transform="matrix(7.5,0,0,7.5,50,50)"><svg xmlns="http://www.w3.org/2000/svg" version="1.1" xmlns:xlink="http://www.w3.org/1999/xlink" xmlns:svgjs="http://svgjs.com/svgjs" width="120" height="120"><svg xmlns="http://www.w3.org/2000/svg" xmlns:xlink="http://www.w3.org/1999/xlink" width="120" height="120" viewBox="0 0 120 120">
  <defs>
    <path id="favicon-a" d="M60.618939,96.1490055 L59.7390667,96.1490055 C50.768482,96.1490055 42.744088,96.0719867 35.7208866,94.0191042 C28.6976851,91.9662216 22.7449011,88.8374881 17.8623561,84.63281 C14.0498576,81.4207731 11.0914967,77.6498467 8.98718463,73.3199179 C6.88287253,68.9899891 5.83073227,64.0204197 5.83073227,58.4110607 C5.83073227,53.1698451 6.873857,48.4389216 8.96013777,44.2181482 C11.0464185,39.9973748 13.9577297,36.2915603 17.6941585,33.1005935 C22.5265539,28.884795 28.5497716,25.6771958 35.7639925,23.4776997 C42.9782133,21.2782035 50.6905575,20.3984413 58.8469151,20.3984413 L60.618939,20.3984413 C61.9331877,20.3792685 63.4763284,20.4350559 65.2484074,20.4204101 C67.0204863,20.4057642 68.369523,20.3984413 69.2955578,20.3984413 C76.1359847,20.3984413 81.7488945,20.6924199 86.1344556,21.2803858 C90.5200167,21.8683518 94.7952194,23.1020498 98.960192,24.981517 C103.515562,27.0218227 107.010254,29.8420464 109.444371,33.4422726 C111.878489,37.0424988 113.095529,41.0974856 113.095529,45.6073548 C113.095529,50.8612352 111.867296,55.3003381 109.410792,58.9247966 C106.954288,62.5492551 103.644146,65.4721315 99.4802649,67.6935137 C96.1872721,69.416403 92.4695383,70.6784604 88.3269522,71.4797238 C84.184366,72.2809872 80.2667952,72.6890688 76.5741222,72.703981 L76.7379248,96.1490055 L60.618939,96.1490055 Z M60.7173949,81.4668931 C60.7609595,73.5916303 60.7827415,64.9397022 60.7827415,55.5108565 C60.7827415,50.913112 60.7652694,45.5251028 60.7303247,39.3466673 C60.7239143,38.2132682 60.7174304,37.0736085 60.710873,35.9285846 C57.5819258,35.9363737 51.0671424,36.1653232 46.8088251,36.8436104 C42.4748268,37.5339525 38.7067588,38.601933 35.504508,40.0475837 C31.1161341,41.9842875 27.6686808,44.5138457 25.1620447,47.6363343 C22.6554087,50.7588228 21.4021094,54.3503624 21.4021094,58.4110607 C21.4021094,62.4975115 22.5953991,66.092709 24.9820141,69.1967612 C27.3686291,72.3008133 30.8019957,74.8533435 35.2822167,76.8544285 C38.6005442,78.4323534 42.4683465,79.5759806 46.8857396,80.2853444 C51.1077393,80.9633312 57.4494761,81.4271846 60.7173949,81.4668931 Z M95.6033326,47.2097536 C95.6033326,44.5368553 95.0334002,42.146132 93.8935183,40.0375122 C92.7536364,37.9288924 91.2169465,36.2526284 89.2834024,35.00867 C87.5422612,33.9140544 85.6235461,33.1476936 83.5271994,32.7095646 C81.4308528,32.2714355 79.195259,32.0523743 76.8203509,32.0523743 C76.5650469,32.0523743 76.3134468,32.0523743 76.065543,32.0523743 C75.8176392,32.0523743 75.5565248,32.0523743 75.282192,32.0523743 C75.282192,32.6836874 75.2677884,34.4732297 75.2389808,37.4210547 C75.2101732,40.3688798 75.1957696,44.724366 75.1957696,50.4876441 C75.1957696,52.292204 75.2005268,54.7240808 75.2100412,57.7833474 C75.2195557,60.8426139 75.2243128,62.9483737 75.2243128,64.1006899 C77.4691903,64.1006899 79.7617377,63.8581527 82.1020239,63.3730712 C84.44231,62.8879896 86.3519072,62.2274118 87.8308729,61.3913179 C90.3611834,59.9561553 92.2891485,58.1270151 93.6148261,55.9038425 C94.9405037,53.6806699 95.6033326,50.7826692 95.6033326,47.2097536 Z"></path>
    <filter id="favicon-b" width="104.7%" height="106.6%" x="-2.3%" y="-3.3%" filterUnits="objectBoundingBox">
      <feGaussianBlur in="SourceAlpha" result="shadowBlurInner1" stdDeviation="1.5"></feGaussianBlur>
      <feOffset dy="2" in="shadowBlurInner1" result="shadowOffsetInner1"></feOffset>
      <feComposite in="shadowOffsetInner1" in2="SourceAlpha" k2="-1" k3="1" operator="arithmetic" result="shadowInnerInner1"></feComposite>
      <feColorMatrix in="shadowInnerInner1" values="0 0 0 0 0   0 0 0 0 0   0 0 0 0 0  0 0 0 0.5 0"></feColorMatrix>
    </filter>
  </defs>
  <g fill="none" fill-rule="evenodd">
    <rect width="120" height="120"></rect>
    <use fill="#0CA0FF" xlink:href="#favicon-a"></use>
    <use fill="#000" filter="url(#favicon-b)" xlink:href="#favicon-a"></use>
  </g>
</svg></svg></g></svg>