<svg xmlns="http://www.w3.org/2000/svg" version="1.1" xmlns:xlink="http://www.w3.org/1999/xlink" xmlns:svgjs="http://svgjs.com/svgjs" width="1000" height="1000"><rect width="1000" height="1000" rx="200" ry="200" fill="#555555"></rect><g transform="matrix(12.5,0,0,12.5,205.75,267.75)"><svg xmlns="http://www.w3.org/2000/svg" version="1.1" xmlns:xlink="http://www.w3.org/1999/xlink" xmlns:svgjs="http://svgjs.com/svgjs" width="48" height="39"><svg xmlns="http://www.w3.org/2000/svg" width="48" height="39" viewBox="0 0 48 39">
  <g fill="none" fill-rule="evenodd" transform="translate(-1 -2)">
    <rect width="16" height="16"></rect>
    <path fill="#579EF3" d="M24.0001175,40.9895478 C20.7088607,40.9499118 17.7148834,40.7634276 15.0320959,39.9034253 C11.7350157,38.8465035 8.94044881,37.2356825 6.64831144,35.0709138 C4.85851323,33.4172041 3.46969456,31.4757516 2.48181377,29.2464979 C1.49393298,27.0172442 1,24.4586731 1,21.5707078 C1,18.8722803 1.4897006,16.4365754 2.46911648,14.2635201 C3.44853236,12.0904648 4.81526325,10.182535 6.56935015,8.53967322 C8.83794451,6.36917927 11.6655769,4.71775434 15.0523322,3.58534892 C17.8771828,2.64082363 20.8647209,2.16900141 24.0002064,2.03843896 C24.0001376,2.02632276 24.0000688,2.01420626 24,2.00208949 C24.3224245,1.99700652 24.6737663,2.00215739 25.0540283,2.00732027 C25.3311482,2.00241077 25.6093875,2 25.8887361,2 L27.0851696,2 C27.0853781,2.00213272 27.0855869,2.00426669 27.0857958,2.00640192 C27.5118945,2.00352696 27.8611498,2.00208949 28.1335664,2.00208949 C31.3923656,2.00208949 34.0663722,2.15343555 36.1556662,2.45613221 C38.2449602,2.75882887 40.2816792,3.39396139 42.2658842,4.36154882 C44.436076,5.41193915 46.1009572,6.86384688 47.2605778,8.71731557 C48.4201984,10.5707843 49,12.6583729 49,14.980144 C49,17.6849471 48.414866,19.9702863 47.2445804,21.8362303 C46.0742948,23.7021742 44.4973333,25.2069297 42.5136485,26.3505418 C40.9448571,27.2375198 39.173718,27.8872523 37.2001779,28.2997588 C35.2266379,28.7122652 33.3602958,28.9223538 31.6010956,28.9300309 L31.6791316,41 L24,41 C24.0000391,40.9965444 24.0000782,40.9930603 24.0001175,40.9895478 Z M24.0357021,35.5536221 C24.0389763,34.9523594 24.0424227,34.3040339 24.0460412,33.6086451 C24.0673712,29.5096278 24.078036,24.9996797 24.078036,20.0786654 C24.078036,17.7116543 24.0697122,14.937799 24.0530645,11.7570165 C24.0471742,10.6316038 24.0411538,9.4942012 24.035003,8.3481196 C22.7750191,8.42073225 21.4184179,8.54081655 20.3592055,8.72584693 C18.3245864,9.08126796 16.5556463,9.63111516 15.0523322,10.3754051 C12.9921862,11.3725124 11.3737604,12.6748495 10.1970064,14.2824554 C9.02025247,15.8900613 7.98401504,16.7879943 7.76323518,21.5 C7.54245532,26.2120057 8.95597271,27.7638688 10.0763822,29.3619828 C10.6774807,30.2193694 11.4200205,30.9950263 12.3040089,31.6889598 C13.0677185,32.2884741 13.9370034,32.8269911 14.9118684,33.3045148 C16.4696754,34.1169057 18.2854362,34.7056995 20.3592055,35.0709138 C21.5366882,35.2782819 22.8517027,35.4467412 24.0357021,35.5536221 Z M40.6666667,15.8050911 C40.6666667,14.4290294 40.3951492,13.1982371 39.8521062,12.1126773 C39.3090631,11.0271175 38.5769796,10.1641431 37.6558336,9.52372837 C36.8263489,8.96019833 35.9122674,8.56566041 34.9135618,8.34010278 C33.9148562,8.11454515 32.8498128,8.00176803 31.7183997,8.00176803 C31.5967721,8.00176803 31.4769091,8.00176803 31.358807,8.00176803 C31.2407049,8.00176803 31.1163092,8.00176803 30.9856163,8.00176803 C30.9856163,8.3267807 30.9787544,9.24807297 30.9650304,10.7656725 C30.9513064,12.283272 30.9444444,14.5255637 30.9444444,17.4926149 C30.9444444,18.4216385 30.9467108,19.6736175 30.9512435,21.2485893 C30.9557762,22.8235611 30.9580425,23.9076485 30.9580425,24.500884 C32.0275086,24.500884 33.1196849,24.376021 34.234604,24.1262913 C35.3495231,23.8765616 36.2592608,23.5364829 36.9638443,23.1060449 C38.1692916,22.3671944 39.0877798,21.4255164 39.7193364,20.2809825 C40.3508931,19.1364486 40.6666667,17.6444997 40.6666667,15.8050911 Z"></path>
  </g>
</svg></svg></g></svg>